HIERARCHY
ROOT Hips
{
  OFFSET 5.84602e-005 68.8428 3.50346
  CHANNELS 6 Xposition Yposition Zposition Zrotation Xrotation Yrotation
  JOINT Spine
  {
    OFFSET 0 8.597 -4.6522
    CHANNELS 3 Zrotation Xrotation Yrotation
    JOINT Spine1
    {
      OFFSET 0 7.8454 0.4098
      CHANNELS 3 Zrotation Xrotation Yrotation
      JOINT Spine2
      {
        OFFSET 0 9.7078 -2.1609
        CHANNELS 3 Zrotation Xrotation Yrotation
        JOINT Neck
        {
          OFFSET 0 21.8761 -0.4549
          CHANNELS 3 Zrotation Xrotation Yrotation
          JOINT Head
          {
            OFFSET 0 12.3537 3.3602
            CHANNELS 3 Zrotation Xrotation Yrotation
            End Site
            {
              OFFSET 0.0001 18.9506 0.5657
            }
          }
        }
        JOINT LeftShoulder
        {
          OFFSET 2.2086 21.1115 7.2329
          CHANNELS 3 Zrotation Xrotation Yrotation
          JOINT LeftArm
          {
            OFFSET 13.1193 3.0282 -4.8998
            CHANNELS 3 Zrotation Xrotation Yrotation
            JOINT LeftForeArm
            {
              OFFSET 27.4081 -0.0973053 -0.2375
              CHANNELS 3 Zrotation Xrotation Yrotation
              JOINT LeftHand
              {
                OFFSET 22.8641 0.0662994 -0.1369
                CHANNELS 3 Zrotation Xrotation Yrotation
                JOINT LeftHandIndex1
                {
                  OFFSET 8.8614 0.775009 2.4612
                  CHANNELS 3 Zrotation Xrotation Yrotation
                  JOINT LeftHandIndex2
                  {
                    OFFSET 3.3146 -0.808304 0.5841
                    CHANNELS 3 Zrotation Xrotation Yrotation
                    JOINT LeftHandIndex3
                    {
                      OFFSET 2.2628 -0.552002 0.3989
                      CHANNELS 3 Zrotation Xrotation Yrotation
                      End Site
                      {
                        OFFSET 1.6102 -0.4807 0.2612
                      }
                    }
                  }
                }
                JOINT LeftHandMiddle1
                {
                  OFFSET 8.9937 0.895004 0.2143
                  CHANNELS 3 Zrotation Xrotation Yrotation
                  JOINT LeftHandMiddle2
                  {
                    OFFSET 4.0984 0.0113983 -0.0242
                    CHANNELS 3 Zrotation Xrotation Yrotation
                    JOINT LeftHandMiddle3
                    {
                      OFFSET 2.2716 0.00689697 -0.0138001
                      CHANNELS 3 Zrotation Xrotation Yrotation
                      End Site
                      {
                        OFFSET 2.0404 -0.1441 0.0027
                      }
                    }
                  }
                }
                JOINT LeftHandRing1
                {
                  OFFSET 8.5234 0.597198 -2.0164
                  CHANNELS 3 Zrotation Xrotation Yrotation
                  JOINT LeftHandRing2
                  {
                    OFFSET 3.7188 -0.188293 -0.2328
                    CHANNELS 3 Zrotation Xrotation Yrotation
                    JOINT LeftHandRing3
                    {
                      OFFSET 2.1191 -0.106598 -0.1332
                      CHANNELS 3 Zrotation Xrotation Yrotation
                      End Site
                      {
                        OFFSET 1.8737 -0.2304 -0.0886
                      }
                    }
                  }
                }
                JOINT LeftHandPinky1
                {
                  OFFSET 7.9094 -0.601089 -3.4825
                  CHANNELS 3 Zrotation Xrotation Yrotation
                  JOINT LeftHandPinky2
                  {
                    OFFSET 2.2874 -0.477005 -0.6314
                    CHANNELS 3 Zrotation Xrotation Yrotation
                    JOINT LeftHandPinky3
                    {
                      OFFSET 1.6774 -0.349396 -0.4633
                      CHANNELS 3 Zrotation Xrotation Yrotation
                      End Site
                      {
                        OFFSET 1.4888 -0.4091 -0.3416
                      }
                    }
                  }
                }
                JOINT LeftHandThumb1
                {
                  OFFSET 1.833 -1.3875 1.3896
                  CHANNELS 3 Zrotation Xrotation Yrotation
                  JOINT LeftHandThumb2
                  {
                    OFFSET 3.4129 -1.121 2.5732
                    CHANNELS 3 Zrotation Xrotation Yrotation
                    JOINT LeftHandThumb3
                    {
                      OFFSET 2.2474 -0.804199 1.6192
                      CHANNELS 3 Zrotation Xrotation Yrotation
                      End Site
                      {
                        OFFSET 1.6527 -0.5689 1.1317
                      }
                    }
                  }
                }
              }
            }
          }
        }
        JOINT RightShoulder
        {
          OFFSET -2.2086 21.1115 7.2329
          CHANNELS 3 Zrotation Xrotation Yrotation
          JOINT RightArm
          {
            OFFSET -13.1216 3.0287 -4.9007
            CHANNELS 3 Zrotation Xrotation Yrotation
            JOINT RightForeArm
            {
              OFFSET -27.4081 -0.0973053 -0.2375
              CHANNELS 3 Zrotation Xrotation Yrotation
              JOINT RightHand
              {
                OFFSET -22.8641 0.0664063 -0.1369
                CHANNELS 3 Zrotation Xrotation Yrotation
                JOINT RightHandIndex1
                {
                  OFFSET -8.8614 0.774994 2.4612
                  CHANNELS 3 Zrotation Xrotation Yrotation
                  JOINT RightHandIndex2
                  {
                    OFFSET -3.3146 -0.808304 0.5841
                    CHANNELS 3 Zrotation Xrotation Yrotation
                    JOINT RightHandIndex3
                    {
                      OFFSET -2.2628 -0.552002 0.3989
                      CHANNELS 3 Zrotation Xrotation Yrotation
                      End Site
                      {
                        OFFSET -1.6102 -0.4807 0.2612
                      }
                    }
                  }
                }
                JOINT RightHandMiddle1
                {
                  OFFSET -8.9937 0.894989 0.2143
                  CHANNELS 3 Zrotation Xrotation Yrotation
                  JOINT RightHandMiddle2
                  {
                    OFFSET -4.0984 0.0113983 -0.0242
                    CHANNELS 3 Zrotation Xrotation Yrotation
                    JOINT RightHandMiddle3
                    {
                      OFFSET -2.2716 0.00691223 -0.0138001
                      CHANNELS 3 Zrotation Xrotation Yrotation
                      End Site
                      {
                        OFFSET -2.0404 -0.1441 0.0027
                      }
                    }
                  }
                }
                JOINT RightHandRing1
                {
                  OFFSET -8.5234 0.597198 -2.0164
                  CHANNELS 3 Zrotation Xrotation Yrotation
                  JOINT RightHandRing2
                  {
                    OFFSET -3.7188 -0.188309 -0.2328
                    CHANNELS 3 Zrotation Xrotation Yrotation
                    JOINT RightHandRing3
                    {
                      OFFSET -2.1191 -0.106598 -0.1332
                      CHANNELS 3 Zrotation Xrotation Yrotation
                      End Site
                      {
                        OFFSET -1.8737 -0.2304 -0.0886
                      }
                    }
                  }
                }
                JOINT RightHandPinky1
                {
                  OFFSET -7.9094 -0.601105 -3.4825
                  CHANNELS 3 Zrotation Xrotation Yrotation
                  JOINT RightHandPinky2
                  {
                    OFFSET -2.2874 -0.477005 -0.6314
                    CHANNELS 3 Zrotation Xrotation Yrotation
                    JOINT RightHandPinky3
                    {
                      OFFSET -1.6774 -0.349396 -0.4633
                      CHANNELS 3 Zrotation Xrotation Yrotation
                      End Site
                      {
                        OFFSET -1.4888 -0.4091 -0.3416
                      }
                    }
                  }
                }
                JOINT RightHandThumb1
                {
                  OFFSET -1.833 -1.38751 1.3896
                  CHANNELS 3 Zrotation Xrotation Yrotation
                  JOINT RightHandThumb2
                  {
                    OFFSET -3.41299 -1.12099 2.5732
                    CHANNELS 3 Zrotation Xrotation Yrotation
                    JOINT RightHandThumb3
                    {
                      OFFSET -2.24741 -0.804108 1.6192
                      CHANNELS 3 Zrotation Xrotation Yrotation
                      End Site
                      {
                        OFFSET -1.6527 -0.5689 1.1317
                      }
                    }
                  }
                }
              }
            }
          }
        }
      }
    }
  }
  JOINT RightUpLeg
  {
    OFFSET -9.1966 3.8861 -0.7581
    CHANNELS 3 Zrotation Xrotation Yrotation
    JOINT RightLeg
    {
      OFFSET -0.7359 -41.0265 0
      CHANNELS 3 Zrotation Xrotation Yrotation
      JOINT RightFoot
      {
        OFFSET 0 -40.2855 0
        CHANNELS 3 Zrotation Xrotation Yrotation
        JOINT RightToeBase
        {
          OFFSET 0 -5.6122 11.7359
          CHANNELS 3 Zrotation Xrotation Yrotation
          End Site
          {
            OFFSET 0 0 7.8731
          }
        }
      }
    }
  }
  JOINT LeftUpLeg
  {
    OFFSET 9.1965 3.8864 -0.7581
    CHANNELS 3 Zrotation Xrotation Yrotation
    JOINT LeftLeg
    {
      OFFSET 0.7359 -41.0268 0
      CHANNELS 3 Zrotation Xrotation Yrotation
      JOINT LeftFoot
      {
        OFFSET 0 -40.2855 0
        CHANNELS 3 Zrotation Xrotation Yrotation
        JOINT LeftToeBase
        {
          OFFSET 0 -5.6122 11.7359
          CHANNELS 3 Zrotation Xrotation Yrotation
          End Site
          {
            OFFSET 0 0 7.8731
          }
        }
      }
    }
  }
}
MOTION
Frames:	4
Frame Time:	0.0333333
5.84602e-005 68.8428 3.50346 0 0 -0 0 0 -0 0 0 -0 0 0 -0 0 0 -0 0 0 -0 0 0 -0 0 0 -0 0 0 -0 0 0 -0 0 0 -0 0 0 -0 0 0 -0 0 0 -0 -0.0146107 -8.87603e-005 -2.63497e-007 2.99804e-018 -2.42657e-020 -1.42182e-022 0 0 -0 -0.0187562 -0.001176 5.858e-005 5.06224e-018 3.88251e-019 1.21329e-020 0 0 -0 -0.012269 -0.00324817 0.000675346 -1.74678e-018 3.88251e-019 -0 0 0 -0 0 0 -0 0 0 -0 0 0 -0 0 0 -0 0 0 -0 0 0 -0 0 0 -0 0 0 -0 0 0 -0 0 0 -0 0.0149955 -9.10982e-005 2.64101e-007 -9.69331e-018 1.21329e-020 -4.7394e-023 0 0 -0 0.0189956 -0.00119102 -5.96516e-005 -5.41541e-019 0 2.42657e-020 0 0 -0 0.0122698 -0.00324857 -0.000673756 -2.00796e-019 0 -1.94126e-019 0 0 -0 0 0 -0 0 0 -0 3.39842 1.33031 -0.0637918 -5.65207e-008 0.834868 -0.000436188 -3.39935 -2.16518 -0.0642563 -8.89002e-024 -1.18485e-023 -1.48106e-024 -3.39844 1.35642 0.0640283 -3.18788e-007 0.782166 -0.000588827 3.39931 -2.13858 0.0634662 1.1399e-023 0 -0 
9.23251 0.213189 19.6161 86.0001 -0.00194224 90.0016 -0.269737 -0.157548 -0.206504 -0.540057 -0.314084 -0.413788 -0.540041 -0.31407 -0.413789 -6.15523e-006 3.99e-005 8.57339e-005 -4.85447e-006 3.10136e-006 17.9983 -8.00956 -0.0485721 0.268284 22.9953 -0.00284062 -4.00615 -47.6986 5.33022 -74.0968 -19.0032 -17.0015 -0.00387815 3.97569e-015 1.59028e-014 4.77083e-015 -2.38542e-015 9.54166e-015 -1.98785e-015 -7.17262e-007 -2.13759e-006 5.37564e-006 3.97569e-015 1.59028e-014 4.77083e-015 -0.0146212 -9.16014e-005 -1.75161e-006 -7.17386e-007 -2.13827e-006 5.37537e-006 3.97569e-015 1.59028e-014 4.77083e-015 -0.01879 -0.00117856 5.65115e-005 -7.17372e-007 -2.13848e-006 5.3753e-006 3.97569e-015 1.59028e-014 4.77083e-015 -0.012264 -0.00324543 0.000670804 -7.1723e-007 -2.13819e-006 5.37544e-006 3.97569e-015 1.59028e-014 4.77083e-015 -2.38542e-015 9.54166e-015 -1.98785e-015 -7.17262e-007 -2.13759e-006 5.37564e-006 7.99915 -0.194696 -0.00216268 70.3963 18.5009 4.21726 4.59735 -8.8858 116.137 7.13697 1.28084e-006 -1.37225e-005 1.82074e-031 4.77083e-015 -2.18663e-015 5.79325e-032 4.77083e-015 -6.95746e-016 -4.6346e-031 6.36111e-015 4.17448e-015 1.82074e-031 4.77083e-015 -2.18663e-015 0.0149764 -9.01398e-005 2.56533e-006 6.36111e-015 3.57812e-015 5.36719e-015 1.82074e-031 4.77083e-015 -2.18663e-015 0.0190043 -0.00119114 -5.84994e-005 -3.18055e-015 -9.54166e-015 3.08116e-015 1.82074e-031 4.77083e-015 -2.18663e-015 0.0122761 -0.00325099 -0.000676238 3.18055e-015 -3.97569e-016 -7.95139e-016 1.82074e-031 4.77083e-015 -2.18663e-015 5.79325e-032 4.77083e-015 -6.95746e-016 -4.6346e-031 6.36111e-015 4.17448e-015 -20.9299 -5.1696 -3.45746 2.42545 15.4305 -1.84655 -6.40182 25.4189 1.91205 2.56575e-006 1.15632e-006 -3.44819e-006 8.17935 -24.8363 5.57059 -4.03828 59.6311 5.62878 6.2038 5.15822 0.448326 -5.16343e-008 3.75244e-006 -9.88863e-007 
9.23251 0.213189 19.6161 86.0001 -0.00194224 90.0016 -0.269737 -0.157548 -0.206504 -0.540057 -0.314084 -0.413788 -0.540041 -0.31407 -0.413789 -6.15523e-006 3.99e-005 8.57339e-005 4.75398e-006 0.230296 17.9984 -8.00956 -0.0485721 0.268284 22.9953 -0.00284062 -4.00615 -47.6986 5.33022 -74.0968 -19.0032 -17.0015 -0.00387815 3.97569e-015 1.59028e-014 4.77083e-015 -2.38542e-015 9.54166e-015 -1.98785e-015 -7.17262e-007 -2.13759e-006 5.37564e-006 3.97569e-015 1.59028e-014 4.77083e-015 -0.0146212 -9.16014e-005 -1.75161e-006 -7.17386e-007 -2.13827e-006 5.37537e-006 3.97569e-015 1.59028e-014 4.77083e-015 -0.01879 -0.00117856 5.65115e-005 -7.17372e-007 -2.13848e-006 5.3753e-006 3.97569e-015 1.59028e-014 4.77083e-015 -0.012264 -0.00324543 0.000670804 -7.1723e-007 -2.13819e-006 5.37544e-006 3.97569e-015 1.59028e-014 4.77083e-015 -2.38542e-015 9.54166e-015 -1.98785e-015 -7.17262e-007 -2.13759e-006 5.37564e-006 7.99915 -0.194696 -0.00216268 70.3963 18.5009 4.21726 4.58224 -8.94263 115.874 7.13669 9.87278e-006 -9.6238e-006 9.51749e-032 2.38542e-015 -2.28602e-015 -3.18055e-015 3.97569e-016 -4.57205e-015 1.44831e-032 1.19271e-015 -6.95746e-016 9.51749e-032 2.38542e-015 -2.28602e-015 0.0149695 -9.03598e-005 -2.13912e-006 -3.18055e-015 -1.59028e-015 -4.77083e-015 9.51749e-032 2.38542e-015 -2.28602e-015 0.0189916 -0.00119254 -6.13294e-005 -6.36111e-015 -3.97569e-015 -1.88845e-015 9.51749e-032 2.38542e-015 -2.28602e-015 0.0122662 -0.00324573 -0.0006797 -1.29107e-030 -1.43125e-014 -5.1684e-015 9.51749e-032 2.38542e-015 -2.28602e-015 -3.18055e-015 3.97569e-016 -4.57205e-015 1.44831e-032 1.19271e-015 -6.95746e-016 -20.9299 -5.16935 -3.45742 2.42545 15.4301 -1.84654 -6.40184 25.419 1.91208 -6.36111e-015 -1.35174e-014 1.59028e-015 8.17935 -24.8363 5.57059 -4.03824 59.6311 5.62875 6.2038 5.15823 0.448337 1.59028e-015 -1.13307e-014 3.18055e-015 
9.23251 0.213189 19.6161 86.0001 -0.00194224 90.0016 -0.269737 -0.157548 -0.206504 -0.540057 -0.314084 -0.413788 -0.540041 -0.31407 -0.413789 -2.61555e-005 -1.15719e-005 8.45706e-005 6.71093e-006 0.460735 17.9984 -8.00956 -0.0485721 0.268284 22.9953 -0.00284146 -4.00614 -47.6986 5.33025 -74.0968 -19.0032 -17.0015 -0.00388289 -6.09116e-007 -7.06955e-007 -1.37175e-006 6.36111e-015 0 -7.15625e-015 -6.09116e-007 -7.06955e-007 -1.37175e-006 -6.09116e-007 -7.06955e-007 -1.37175e-006 -0.0146151 -8.9277e-005 -2.81566e-006 -9.23809e-007 2.94971e-006 -1.85347e-006 -6.09116e-007 -7.06955e-007 -1.37175e-006 -0.018744 -0.00117955 5.34792e-005 -6.09065e-007 -7.06726e-007 -1.37186e-006 -6.09116e-007 -7.06955e-007 -1.37175e-006 -0.0122634 -0.00324472 0.000672176 -6.09116e-007 -7.06793e-007 -1.37181e-006 -6.09116e-007 -7.06955e-007 -1.37175e-006 6.36111e-015 0 -7.15625e-015 -6.09116e-007 -7.06955e-007 -1.37175e-006 7.99915 -0.194696 -0.00216268 70.3963 18.5009 4.21725 4.56683 -8.99951 115.61 7.13641 -7.01233e-006 2.7265e-006 1.84039e-006 9.36486e-007 -2.16279e-006 3.18055e-015 -1.66979e-014 -2.68359e-015 1.84039e-006 9.36486e-007 -2.16279e-006 1.84039e-006 9.36486e-007 -2.16279e-006 0.0149536 -8.88593e-005 -3.511e-006 1.84018e-006 9.36205e-007 -2.16291e-006 1.84039e-006 9.36486e-007 -2.16279e-006 0.0189643 -0.00119044 -5.9793e-005 1.8401e-006 9.36146e-007 -2.16296e-006 1.84039e-006 9.36486e-007 -2.16279e-006 0.0122674 -0.00325418 -0.000673312 1.84015e-006 9.36312e-007 -2.16293e-006 1.84039e-006 9.36486e-007 -2.16279e-006 3.18055e-015 -1.66979e-014 -2.68359e-015 1.84039e-006 9.36486e-007 -2.16279e-006 -20.9299 -5.16928 -3.45739 2.42544 15.4299 -1.84652 -6.40182 25.419 1.91207 -6.36111e-015 8.74653e-015 -4.77083e-015 8.17934 -24.8364 5.57058 -4.0383 59.6311 5.62879 6.2038 5.15825 0.44833 -1.90203e-006 1.8504e-006 -4.91715e-006 
